<?xml version="1.0" standalone="no"?>
<!DOCTYPE svg PUBLIC "-//W3C//DTD SVG 20010904//EN"
 "http://www.w3.org/TR/2001/REC-SVG-20010904/DTD/svg10.dtd">
<svg version="1.0" xmlns="http://www.w3.org/2000/svg"
 width="230.000000pt" height="230.000000pt" viewBox="0 0 230.000000 230.000000"
 preserveAspectRatio="xMidYMid meet">
<metadata>
Created by potrace 1.10, written by Peter Selinger 2001-2011
</metadata>
<g transform="translate(0.000000,230.000000) scale(0.050000,-0.050000)"
fill="#aaa8a9" stroke="none">
<path d="M2070 4440 c-7 -11 -65 -20 -130 -20 -65 0 -123 -9 -131 -21 -7 -11
-29 -15 -49 -9 -20 6 -42 2 -49 -9 -8 -12 -35 -21 -62 -21 -27 0 -49 -9 -49
-20 0 -11 -16 -20 -35 -20 -19 0 -102 -32 -185 -72 -82 -39 -172 -82 -200 -95
-27 -12 -65 -39 -82 -58 -18 -19 -41 -35 -52 -35 -11 0 -37 -19 -58 -42 -21
-24 -53 -48 -71 -55 -49 -19 -317 -282 -317 -312 0 -14 -22 -42 -50 -63 -27
-21 -50 -48 -50 -60 0 -13 -14 -35 -31 -49 -17 -14 -49 -64 -70 -111 -21 -47
-48 -91 -59 -98 -11 -7 -20 -34 -20 -61 0 -27 -9 -49 -20 -49 -11 0 -20 -18
-20 -40 0 -22 -9 -40 -20 -40 -11 0 -20 -22 -20 -49 0 -27 -9 -54 -20 -61 -11
-7 -20 -34 -20 -61 0 -27 -10 -49 -22 -49 -13 0 -18 -16 -13 -37 5 -20 -1 -51
-14 -69 -15 -19 -21 -73 -16 -131 5 -59 0 -104 -13 -112 -30 -18 -30 -464 0
-482 14 -9 18 -46 11 -100 -8 -58 -3 -92 14 -107 15 -12 22 -46 17 -82 -5 -36
0 -60 14 -60 12 0 22 -18 22 -39 0 -22 18 -72 40 -111 22 -39 40 -85 40 -101
0 -27 36 -105 60 -129 17 -17 59 -88 78 -131 10 -22 32 -53 50 -67 18 -15 32
-38 32 -51 0 -14 18 -41 40 -61 22 -20 40 -46 40 -58 0 -27 327 -352 354 -352
10 0 40 -23 66 -50 26 -28 58 -50 71 -50 13 0 35 -14 49 -30 27 -32 261 -150
298 -150 12 0 22 -9 22 -20 0 -11 22 -20 49 -20 27 0 54 -9 61 -20 7 -11 34
-20 60 -20 26 0 53 -9 60 -20 7 -11 34 -20 61 -20 27 0 49 -10 49 -23 0 -15
33 -19 99 -13 54 6 107 2 118 -9 20 -20 597 -28 617 -8 7 7 47 13 88 13 42 0
81 9 88 20 7 11 34 20 60 20 26 0 53 9 60 20 7 11 34 20 61 20 27 0 49 9 49
20 0 11 18 20 40 20 22 0 56 8 75 19 19 10 89 43 155 74 66 30 135 71 152 91
18 20 48 36 66 36 18 0 38 14 45 30 6 17 26 30 44 30 18 1 64 37 102 80 38 44
78 80 90 81 31 1 111 72 111 99 0 12 32 52 70 89 39 36 70 75 70 85 0 11 18
36 40 56 22 20 40 47 40 60 0 13 18 40 40 60 22 20 36 40 32 45 -5 5 8 39 29
77 22 37 57 100 79 139 22 38 40 88 40 110 0 21 10 39 22 39 13 0 19 21 13 49
-5 29 1 53 16 59 14 5 21 27 16 49 -6 21 -1 45 11 52 12 7 22 57 22 111 0 54
9 103 20 110 27 17 27 603 0 620 -11 7 -20 52 -20 101 0 50 -9 89 -21 89 -12
0 -16 17 -10 38 7 21 3 44 -8 51 -12 8 -21 35 -21 61 0 26 -9 53 -20 60 -11 7
-20 34 -20 60 0 25 -7 50 -16 53 -8 4 -42 59 -75 123 -32 64 -68 134 -79 155
-11 22 -26 39 -35 39 -8 0 -15 16 -15 35 0 19 -27 56 -60 82 -33 26 -60 58
-60 71 0 29 -348 377 -363 363 -6 -6 -27 7 -47 29 -20 22 -48 40 -63 40 -15 0
-38 18 -52 40 -13 22 -39 40 -57 40 -18 0 -44 14 -58 30 -14 17 -37 30 -52 30
-16 0 -28 9 -28 20 0 11 -18 20 -40 20 -22 0 -40 9 -40 20 0 11 -17 20 -38 20
-33 0 -94 25 -247 103 -20 10 -57 12 -83 6 -26 -7 -54 -3 -61 9 -7 12 -57 22
-111 22 -54 0 -103 9 -110 20 -7 11 -110 20 -240 20 -130 0 -233 -9 -240 -20z
m370 -320 c0 -11 57 -20 130 -20 73 0 130 -9 130 -20 0 -11 31 -20 69 -20 38
0 74 -9 81 -20 7 -12 21 -15 32 -9 22 14 138 -33 138 -56 0 -8 18 -15 40 -15
22 0 40 -9 40 -20 0 -11 21 -20 48 -20 26 0 58 -13 72 -30 14 -16 36 -30 49
-30 13 0 49 -27 81 -60 32 -33 67 -60 79 -60 28 0 345 -318 382 -382 15 -26
37 -68 48 -94 11 -25 34 -50 51 -57 17 -6 30 -36 30 -69 0 -32 7 -58 15 -58
21 0 85 -151 85 -200 0 -22 9 -40 20 -40 11 0 20 -22 20 -49 0 -27 9 -54 20
-61 11 -7 20 -61 20 -121 0 -60 9 -109 20 -109 12 0 20 -83 20 -209 0 -117 -9
-214 -20 -221 -11 -7 -20 -56 -20 -110 0 -54 -9 -103 -20 -110 -11 -7 -20 -30
-20 -51 0 -22 -8 -55 -19 -74 -28 -53 -48 -112 -51 -145 -3 -44 -77 -200 -95
-200 -8 0 -15 -16 -15 -35 0 -20 -18 -47 -40 -60 -22 -14 -40 -36 -40 -50 0
-30 -441 -475 -472 -475 -12 0 -38 -18 -58 -40 -20 -22 -48 -40 -63 -40 -15 0
-27 -10 -27 -21 0 -12 -8 -17 -17 -11 -21 13 -123 -31 -123 -53 0 -8 -22 -15
-49 -15 -27 0 -54 -9 -61 -20 -7 -11 -34 -20 -61 -20 -27 0 -49 -9 -49 -20 0
-11 -22 -20 -49 -20 -27 0 -55 -10 -62 -22 -9 -15 -48 -18 -112 -10 -62 9 -97
6 -97 -7 0 -13 -85 -21 -230 -21 -132 0 -230 8 -230 19 0 11 -41 14 -97 8 -62
-8 -103 -4 -111 11 -8 12 -36 22 -63 22 -27 0 -49 9 -49 20 0 11 -18 20 -39
20 -22 0 -69 17 -105 37 -36 20 -100 43 -141 51 -42 8 -87 32 -100 53 -14 21
-37 39 -52 39 -16 0 -43 17 -61 37 -17 20 -43 40 -56 45 -36 12 -366 340 -366
363 0 11 -22 41 -50 67 -27 25 -50 54 -50 64 0 10 -18 34 -40 54 -22 20 -40
51 -40 69 0 42 -45 141 -65 141 -8 0 -15 18 -15 40 0 22 -10 40 -22 40 -13 0
-18 18 -12 39 5 22 -1 49 -15 60 -13 11 -20 47 -15 81 5 36 0 60 -14 60 -14 0
-22 48 -22 130 0 73 -9 130 -20 130 -11 0 -20 57 -20 130 0 73 9 130 20 130
11 0 20 60 20 139 0 79 9 144 22 152 13 8 17 39 10 72 -8 41 -3 62 18 70 16 6
25 19 20 28 -6 9 -2 22 10 29 11 7 20 29 20 49 0 40 80 207 105 218 8 3 15 24
15 45 0 21 9 38 20 38 11 0 20 12 20 26 0 14 32 57 70 94 39 37 70 77 70 88 0
28 223 252 250 252 12 0 57 36 99 79 42 43 82 78 89 76 22 -4 182 74 182 90 0
8 18 15 40 15 22 0 40 9 40 20 0 11 17 20 37 20 20 0 67 15 105 34 37 19 93
32 123 29 30 -3 55 4 55 15 0 14 53 22 139 22 76 0 144 9 151 20 7 11 70 20
141 20 73 0 129 -9 129 -20z"/>
<path d="M2150 3360 c-7 -11 -28 -20 -48 -20 -154 0 -442 -288 -442 -442 0
-21 -7 -38 -15 -38 -45 0 -7 -441 48 -555 66 -136 178 -265 230 -265 20 0 37
-7 37 -15 0 -20 99 -65 143 -65 19 0 40 -9 47 -20 16 -26 224 -26 240 0 7 11
28 20 48 20 72 0 166 65 195 134 37 90 94 83 103 -12 4 -37 -3 -77 -15 -89
-11 -11 -21 -63 -21 -115 0 -52 -7 -98 -16 -101 -8 -4 -40 -57 -70 -119 -29
-61 -70 -125 -89 -141 -59 -49 -140 -82 -163 -68 -12 7 -28 -1 -34 -18 -13
-34 -108 -44 -108 -11 0 11 -17 20 -37 20 -94 0 -234 114 -284 233 -25 59 -36
64 -138 72 -110 7 -165 -8 -123 -34 12 -7 22 -34 22 -59 0 -97 167 -352 231
-352 13 0 35 -13 49 -30 14 -16 55 -30 91 -30 37 0 72 -9 79 -20 16 -26 304
-26 320 0 7 11 33 20 59 20 25 0 57 13 71 30 14 17 36 30 49 30 29 0 111 84
111 113 0 12 18 37 40 57 22 20 40 48 40 63 0 15 9 27 20 27 11 0 20 18 20 39
0 22 18 72 40 111 26 46 36 89 28 121 -8 30 -4 49 10 49 14 0 22 56 22 159 0
87 9 164 20 171 11 7 20 84 20 171 0 93 -8 159 -20 159 -11 0 -20 57 -20 130
0 82 -8 130 -22 130 -12 0 -17 13 -11 29 32 85 -246 469 -341 470 -24 1 -49
10 -56 21 -7 11 -34 20 -60 20 -26 0 -53 9 -60 20 -7 11 -61 20 -120 20 -59 0
-113 -9 -120 -20z m275 -265 c133 -74 235 -213 235 -318 0 -31 9 -57 20 -57
11 0 20 -31 20 -70 0 -38 -9 -70 -20 -70 -11 0 -20 -26 -20 -57 0 -80 -44
-160 -140 -253 l-82 -80 -168 0 -168 0 -91 89 c-54 53 -91 107 -91 134 0 25
-9 50 -20 57 -80 49 9 459 121 561 96 87 304 120 404 64z m395 -761 c-1 -16
-6 -15 -18 3 -11 18 -22 20 -30 7 -7 -12 -4 -27 7 -33 10 -7 14 -25 8 -42 -6
-16 -1 -29 12 -29 13 0 17 -10 10 -21 -16 -27 -68 42 -62 83 10 70 74 98 73
32z"/>
</g>
</svg>
