<?xml version="1.0" standalone="no"?>
<!DOCTYPE svg PUBLIC "-//W3C//DTD SVG 20010904//EN"
 "http://www.w3.org/TR/2001/REC-SVG-20010904/DTD/svg10.dtd">
<svg version="1.0" xmlns="http://www.w3.org/2000/svg"
 width="230.000000pt" height="230.000000pt" viewBox="0 0 230.000000 230.000000"
 preserveAspectRatio="xMidYMid meet">
<metadata>
Created by potrace 1.10, written by Peter Selinger 2001-2011
</metadata>
<g transform="translate(0.000000,230.000000) scale(0.050000,-0.050000)"
fill="#aaa8a9" stroke="none">
<path d="M1437 4173 c-438 -163 -621 -604 -428 -1027 64 -140 1168 -1266 1241
-1266 65 0 1169 1119 1237 1253 364 722 -498 1397 -1128 883 l-111 -90 -89 80
c-186 167 -518 244 -722 167z m430 -145 c61 -21 145 -78 234 -160 167 -153
132 -152 288 -11 185 169 244 193 461 193 347 -1 578 -232 579 -580 1 -239
-31 -283 -644 -895 l-536 -536 -544 546 c-611 615 -632 643 -633 885 -3 417
393 695 795 558z"/>
<path d="M519 1209 c-42 -51 27 -111 74 -64 33 32 11 95 -33 95 -8 0 -27 -14
-41 -31z"/>
<path d="M679 1209 c-42 -51 27 -111 74 -64 33 32 11 95 -33 95 -8 0 -27 -14
-41 -31z"/>
<path d="M1244 947 c7 -280 -14 -329 -71 -170 -48 134 -175 343 -207 343 -53
0 -48 -57 15 -159 61 -98 139 -279 139 -321 0 -11 -27 -20 -60 -20 -48 0 -60
-9 -60 -43 0 -50 132 -43 241 13 44 23 70 26 98 11 100 -54 541 -18 541 44 0
35 -9 39 -71 29 -126 -21 -210 48 -179 146 17 55 95 71 155 31 68 -44 130 14
66 61 -152 111 -373 -20 -310 -184 26 -70 28 -68 -59 -68 -102 0 -115 21 -130
210 -25 296 -33 330 -75 330 -36 0 -38 -15 -33 -253z"/>
<path d="M4470 950 c17 -260 6 -290 -101 -290 -71 0 -75 6 -98 147 -10 57 -21
73 -44 65 -17 -7 -34 -12 -39 -12 -4 0 -8 -36 -8 -79 0 -94 -36 -121 -160
-121 -86 0 -140 69 -140 179 0 43 -15 49 -68 29 -21 -8 -32 -37 -32 -85 -1
-90 -26 -133 -68 -117 -23 9 -32 39 -32 103 0 110 -66 133 -101 36 -68 -189
-155 -200 -125 -16 15 93 -60 105 -98 16 -79 -185 -243 -201 -259 -25 -9 96
-60 101 -113 12 -125 -212 -583 -178 -559 42 15 133 -72 147 -97 15 -42 -229
330 -361 619 -220 48 24 82 30 90 17 42 -65 224 -89 293 -38 32 23 42 23 65 0
15 -16 52 -28 83 -28 30 0 71 12 92 28 32 23 42 23 65 0 37 -37 154 -36 185 2
21 26 29 26 67 0 48 -34 224 -40 301 -11 32 13 55 13 62 0 24 -38 227 -22 270
21 77 77 56 560 -24 560 -38 0 -39 -9 -26 -230z"/>
<path d="M586 1010 c-112 -79 -94 -254 29 -281 94 -21 96 -24 39 -47 -31 -12
-100 -22 -153 -22 -109 0 -113 5 -131 165 -19 166 -29 195 -62 195 -18 0 -36
-18 -42 -39 -6 -22 -27 -45 -47 -51 -204 -65 -202 -289 3 -291 48 0 105 -13
127 -30 87 -66 405 -15 452 72 87 164 -81 422 -215 329z m134 -172 c0 -27 -14
-38 -51 -38 -62 0 -82 46 -50 116 l25 54 38 -47 c21 -26 38 -64 38 -85z m-440
-57 c0 -68 -17 -83 -77 -68 -52 14 -57 77 -8 105 60 36 85 25 85 -37z"/>
<path d="M2580 1010 c-47 -57 43 -119 96 -66 18 18 16 32 -9 60 -40 44 -55 45
-87 6z"/>
<path d="M2753 1004 c-25 -28 -27 -42 -9 -60 53 -53 143 9 96 66 -32 39 -47
38 -87 -6z"/>
<path d="M4000 450 c-28 -34 3 -90 50 -90 47 0 78 56 50 90 -14 17 -36 30 -50
30 -14 0 -36 -13 -50 -30z"/>
<path d="M4179 449 c-42 -51 27 -111 74 -64 33 32 11 95 -33 95 -8 0 -27 -14
-41 -31z"/>
</g>
</svg>
