<?xml version="1.0" standalone="no"?>
<!DOCTYPE svg PUBLIC "-//W3C//DTD SVG 20010904//EN"
 "http://www.w3.org/TR/2001/REC-SVG-20010904/DTD/svg10.dtd">
<svg version="1.0" xmlns="http://www.w3.org/2000/svg"
 width="230.000000pt" height="230.000000pt" viewBox="0 0 230.000000 230.000000"
 preserveAspectRatio="xMidYMid meet">
<metadata>
Created by potrace 1.10, written by Peter Selinger 2001-2011
</metadata>
<g transform="translate(0.000000,230.000000) scale(0.050000,-0.050000)"
fill="#aaa8a9" stroke="none">
<path d="M1220 3160 l0 -960 150 0 150 0 0 -147 0 -147 65 5 c36 2 481 5 990
7 l925 2 0 940 0 940 -130 0 -130 0 0 160 0 160 -1010 0 -1010 0 0 -960z
m1960 770 l0 -130 -830 0 -830 0 0 -770 0 -770 -110 0 -110 0 0 900 0 900 940
0 940 0 0 -130z m235 -1075 l5 -875 -920 0 -920 0 0 870 0 870 845 5 c465 3
877 5 915 5 l70 0 5 -875z"/>
<path d="M2476 3115 l-6 -225 -225 -6 c-182 -4 -225 -11 -225 -35 0 -24 41
-29 229 -29 l230 0 5 -220 c8 -290 44 -291 52 -1 l5 220 223 5 c324 9 330 56
8 56 l-232 0 0 230 c0 189 -5 230 -29 230 -24 0 -31 -43 -35 -225z"/>
<path d="M2910 1327 c-116 -48 -187 -97 -169 -115 15 -13 327 123 335 146 11
32 -32 24 -166 -31z"/>
<path d="M2930 1220 c-218 -93 -230 -119 -111 -254 189 -215 152 -254 -245
-262 l-312 -5 -22 83 c-63 234 -292 238 -315 6 -11 -120 14 -148 145 -163 50
-6 90 -14 90 -20 0 -39 -97 -127 -181 -163 -103 -45 -122 -87 -44 -98 89 -13
228 84 288 201 l38 75 311 0 c253 0 322 6 367 33 52 30 59 30 103 0 53 -37
262 -46 346 -14 32 13 55 13 62 0 21 -33 315 -23 367 13 103 72 91 215 -28
347 -87 96 -92 85 70 151 123 49 137 60 119 93 -24 46 -3 49 -189 -32 -203
-88 -211 -111 -86 -248 160 -175 129 -263 -90 -263 -120 0 -117 -3 -142 147
-10 57 -21 73 -44 65 -17 -7 -34 -12 -39 -12 -4 0 -8 -36 -8 -79 0 -97 -35
-121 -176 -121 -111 0 -125 11 -220 181 -35 62 -81 128 -103 148 -60 55 -54
62 100 123 153 60 169 73 145 116 -13 24 -48 15 -196 -48z m-825 -375 c67 -74
66 -145 0 -145 -86 0 -117 44 -85 120 29 69 42 73 85 25z"/>
<path d="M3240 1090 c-28 -34 3 -90 50 -90 47 0 78 56 50 90 -14 17 -36 30
-50 30 -14 0 -36 -13 -50 -30z"/>
<path d="M3419 1089 c-42 -51 27 -111 74 -64 33 32 11 95 -33 95 -8 0 -27 -14
-41 -31z"/>
<path d="M1268 961 c-82 -34 -148 -137 -148 -233 0 -92 21 -111 165 -156 115
-35 -28 -132 -195 -132 -191 0 -246 94 -181 311 30 99 20 128 -43 129 -42 0
-93 -287 -66 -371 74 -223 620 -195 620 32 0 64 -26 89 -131 123 -144 47 -60
259 90 229 57 -11 96 27 70 69 -14 22 -124 21 -181 -1z"/>
<path d="M1685 863 c-21 -13 -21 -37 -2 -120 30 -132 -5 -217 -122 -295 -87
-57 -90 -63 -62 -108 16 -24 33 -19 105 31 163 115 216 268 154 446 -23 66
-32 72 -73 46z"/>
</g>
</svg>
