<?xml version="1.0" standalone="no"?>
<!DOCTYPE svg PUBLIC "-//W3C//DTD SVG 20010904//EN"
 "http://www.w3.org/TR/2001/REC-SVG-20010904/DTD/svg10.dtd">
<svg version="1.0" xmlns="http://www.w3.org/2000/svg"
 width="230.000000pt" height="230.000000pt" viewBox="0 0 230.000000 230.000000"
 preserveAspectRatio="xMidYMid meet">
<metadata>
Created by potrace 1.10, written by Peter Selinger 2001-2011
</metadata>
<g transform="translate(0.000000,230.000000) scale(0.050000,-0.050000)"
fill="#aaa8a9" stroke="none">
<path d="M2298 4140 c-246 -42 -338 -162 -338 -440 0 -87 -9 -163 -20 -170
-59 -36 -21 -245 80 -442 162 -316 152 -344 -186 -529 -255 -139 -284 -178
-284 -389 l0 -160 90 -44 c297 -147 1263 -147 1560 0 l90 44 6 119 c12 231
-34 290 -356 451 -129 65 -241 132 -247 150 -29 74 -11 172 47 263 33 52 60
105 60 118 0 13 27 51 60 86 63 65 91 302 40 333 -11 7 -20 84 -20 172 0 340
-214 501 -582 438z m360 -95 c123 -60 162 -143 162 -347 0 -97 9 -181 20 -188
45 -28 23 -228 -30 -274 -27 -24 -50 -53 -50 -66 0 -12 -32 -76 -72 -141 -145
-241 -100 -342 223 -498 260 -126 319 -185 340 -343 23 -173 -91 -226 -580
-271 -563 -52 -1091 54 -1091 219 0 180 65 256 350 410 296 161 317 239 150
560 -100 194 -135 370 -80 404 11 7 20 89 20 182 0 178 21 247 98 316 101 92
389 111 540 37z"/>
<path d="M2293 1244 c-25 -28 -27 -42 -9 -60 53 -53 143 9 96 66 -32 39 -47
38 -87 -6z"/>
<path d="M1325 906 c13 -377 4 -416 -97 -458 -161 -67 -296 107 -209 269 14
26 8 41 -21 60 -73 45 -125 -154 -77 -293 78 -221 499 -148 499 87 0 47 5 49
141 49 214 0 279 85 213 280 -17 49 -36 70 -64 70 -42 0 -42 0 -17 -151 15
-94 -22 -123 -144 -115 -121 8 -125 16 -140 301 -12 219 -16 235 -54 235 -40
0 -41 -7 -30 -334z"/>
<path d="M1976 955 c6 -238 11 -269 47 -300 87 -74 428 -27 478 66 84 157 -79
417 -208 333 -119 -78 -104 -258 22 -285 94 -21 96 -24 39 -47 -88 -35 -267
-29 -282 10 -7 17 -12 134 -12 260 0 223 -1 228 -45 228 -45 0 -45 -2 -39
-265z m444 -77 c0 -27 -14 -38 -51 -38 -62 0 -82 46 -50 116 l25 54 38 -47
c21 -26 38 -64 38 -85z"/>
<path d="M3571 962 c-6 -10 -2 -42 9 -72 56 -148 23 -190 -151 -190 -106 0
-109 2 -149 80 -47 92 -136 119 -112 35 56 -194 -13 -369 -164 -417 -29 -10
-12 -78 20 -78 50 0 199 134 238 213 l42 87 149 0 c196 0 259 51 240 192 -19
140 -81 216 -122 150z"/>
<path d="M2689 911 c-116 -116 -47 -291 115 -291 42 0 76 -5 76 -12 0 -42 -94
-129 -181 -166 -105 -46 -122 -88 -37 -97 66 -7 197 72 250 150 157 233 -39
600 -223 416z m136 -66 c67 -74 66 -145 0 -145 -86 0 -117 44 -85 120 29 69
42 73 85 25z"/>
<path d="M1540 510 c-47 -57 43 -119 96 -66 18 18 16 32 -9 60 -40 44 -55 45
-87 6z"/>
<path d="M1714 504 c-35 -38 -14 -84 38 -84 50 0 69 52 31 87 -34 31 -39 31
-69 -3z"/>
<path d="M3413 503 c-31 -34 -31 -39 4 -70 50 -45 126 25 83 77 -32 39 -47 38
-87 -7z"/>
<path d="M3593 504 c-25 -28 -27 -42 -9 -60 53 -53 143 9 96 66 -32 39 -47 38
-87 -6z"/>
<path d="M3503 374 c-18 -22 -17 -34 6 -54 40 -32 96 -10 87 35 -8 44 -63 55
-93 19z"/>
</g>
</svg>
