<?xml version="1.0" standalone="no"?>
<!DOCTYPE svg PUBLIC "-//W3C//DTD SVG 20010904//EN"
 "http://www.w3.org/TR/2001/REC-SVG-20010904/DTD/svg10.dtd">
<svg version="1.0" xmlns="http://www.w3.org/2000/svg"
 width="230.000000pt" height="230.000000pt" viewBox="0 0 230.000000 230.000000"
 preserveAspectRatio="xMidYMid meet">
<metadata>
Created by potrace 1.10, written by Peter Selinger 2001-2011
</metadata>
<g transform="translate(0.000000,230.000000) scale(0.050000,-0.050000)"
fill="#aaa8a9" stroke="none">
<path d="M1260 3860 c0 -232 -5 -283 -30 -293 -44 -17 -45 -1473 -1 -1578 54
-130 49 -129 1201 -129 1084 0 1117 3 1190 90 46 56 57 1589 11 1615 -26 14
-31 64 -31 295 l0 279 -1170 1 -1170 1 0 -281z m2128 203 c6 -9 -30 -56 -79
-104 l-89 -87 0 -156 0 -156 -790 0 -790 0 0 156 0 156 -89 87 c-49 48 -85 95
-79 104 14 22 1902 22 1916 0z m-1933 -101 c127 -117 127 -93 1 -262 -136
-182 -136 -182 -136 110 0 286 -4 281 135 152z m2085 -152 c0 -292 0 -292
-136 -110 -126 168 -126 141 1 260 139 131 135 136 135 -150z m-1960 -160 c0
-90 0 -90 -70 -90 -85 0 -86 3 -7 101 79 98 77 98 77 -11z m1840 -75 c0 -8
-31 -15 -70 -15 l-70 0 1 95 1 95 68 -80 c38 -44 70 -87 70 -95z m176 -775 c3
-379 0 -719 -6 -755 -23 -126 -14 -125 -1146 -125 -1067 0 -1121 4 -1160 88
-20 46 -31 1444 -11 1477 5 9 529 13 1163 10 l1154 -5 6 -690z"/>
<path d="M1867 3337 c-69 -34 -114 -157 -57 -157 17 0 30 13 30 30 0 90 148
103 182 16 21 -56 71 -51 62 6 -15 92 -129 147 -217 105z"/>
<path d="M2832 3315 c-56 -50 -75 -116 -37 -130 14 -4 33 14 43 41 34 87 182
74 182 -16 0 -17 14 -30 30 -30 60 0 11 124 -63 158 -70 32 -98 28 -155 -23z"/>
<path d="M1907 3208 c-29 -75 10 -383 61 -484 190 -375 734 -373 926 4 59 115
92 473 47 501 -37 23 -41 10 -48 -191 -27 -731 -888 -726 -928 5 -10 184 -30
240 -58 165z"/>
<path d="M1953 1124 c-25 -28 -27 -42 -9 -60 53 -53 143 9 96 66 -32 39 -47
38 -87 -6z"/>
<path d="M706 1024 c-17 -11 -7 -52 35 -154 33 -76 59 -149 59 -162 0 -53
-128 -64 -195 -18 -40 28 -45 28 -64 -9 -35 -65 52 -109 184 -93 58 7 114 12
125 11 275 -27 349 -22 399 29 78 77 49 302 -39 302 -42 0 -43 -9 -17 -145 18
-95 -17 -125 -145 -125 -124 0 -128 5 -220 235 -57 142 -74 160 -122 129z"/>
<path d="M2966 1024 c-17 -11 -7 -52 35 -154 33 -76 59 -149 59 -162 0 -53
-128 -64 -195 -18 -40 28 -45 28 -64 -9 -35 -65 52 -109 184 -93 118 14 107
15 250 -1 58 -6 132 -2 165 10 36 13 64 13 71 2 15 -25 182 -24 229 1 25 13
42 13 50 0 16 -26 164 -26 180 0 8 13 25 13 50 0 57 -30 173 -24 209 11 55 55
23 330 -38 329 -58 -1 -69 -31 -41 -111 37 -104 37 -139 -2 -171 -50 -41 -93
30 -77 127 14 82 -59 117 -83 40 -58 -186 -164 -245 -141 -77 10 75 6 89 -27
98 -45 11 -60 0 -60 -47 0 -61 -79 -139 -140 -139 -61 0 -66 9 -89 147 -10 57
-21 73 -44 65 -17 -7 -34 -12 -39 -12 -4 0 -8 -34 -8 -76 0 -96 -28 -124 -124
-124 -87 0 -101 17 -188 235 -57 142 -74 160 -122 129z"/>
<path d="M1877 880 c-33 -33 -54 -69 -47 -80 21 -33 79 -23 105 20 35 55 285
18 285 -43 0 -37 -223 -104 -373 -113 l-164 -9 -42 83 c-48 93 -137 123 -113
37 56 -194 -13 -369 -164 -417 -29 -10 -12 -78 20 -78 49 0 199 134 236 211
l41 84 185 9 c179 9 410 80 522 162 42 31 23 94 -28 94 -19 0 -86 23 -148 50
-155 68 -239 66 -315 -10z"/>
<path d="M1040 470 c-47 -57 43 -119 96 -66 18 18 16 32 -9 60 -40 44 -55 45
-87 6z"/>
<path d="M1214 464 c-35 -38 -14 -84 38 -84 50 0 69 52 31 87 -34 31 -39 31
-69 -3z"/>
<path d="M3393 463 c-31 -34 -31 -39 4 -70 34 -31 39 -31 70 4 31 34 31 39 -4
70 -34 31 -39 31 -70 -4z"/>
</g>
</svg>
