<?xml version="1.0" standalone="no"?>
<!DOCTYPE svg PUBLIC "-//W3C//DTD SVG 20010904//EN"
 "http://www.w3.org/TR/2001/REC-SVG-20010904/DTD/svg10.dtd">
<svg version="1.0" xmlns="http://www.w3.org/2000/svg"
 width="230.000000pt" height="230.000000pt" viewBox="0 0 230.000000 230.000000"
 preserveAspectRatio="xMidYMid meet">
<metadata>
Created by potrace 1.10, written by Peter Selinger 2001-2011
</metadata>
<g transform="translate(0.000000,230.000000) scale(0.050000,-0.050000)"
fill="#b6b5af" stroke="none">
<path d="M2210 4207 c-855 -132 -1300 -1116 -830 -1835 635 -972 2129 -572
2194 588 42 735 -641 1359 -1364 1247z m438 -210 c735 -193 993 -1123 464
-1674 -587 -611 -1598 -293 -1732 546 -113 708 566 1313 1268 1128z"/>
<path d="M2230 3582 c-311 -143 -277 -646 51 -745 99 -29 211 -7 273 56 63 62
69 55 54 -58 -39 -279 -302 -389 -423 -176 -51 89 -171 92 -146 4 89 -310 489
-331 630 -33 247 521 -37 1137 -439 952z m268 -153 c123 -104 123 -314 0 -418
-137 -115 -315 -28 -333 165 -24 245 169 391 333 253z"/>
<path d="M2381 1152 c-199 -87 -220 -131 -108 -230 218 -192 181 -272 -129
-272 -243 0 -296 29 -276 153 14 85 -38 126 -82 64 -78 -105 -2 -254 147 -288
441 -103 709 91 474 342 -51 55 -89 102 -85 105 4 4 69 32 144 63 97 40 134
65 130 88 -10 50 -54 45 -215 -25z"/>
<path d="M3050 950 c18 -289 -10 -355 -79 -185 -61 151 -170 335 -197 335 -75
-1 -77 -35 -6 -146 146 -227 174 -354 81 -354 -37 0 -49 -11 -49 -43 0 -50
134 -43 245 13 42 20 70 23 96 10 80 -43 317 -24 370 29 78 78 47 319 -39 307
-43 -6 -45 -16 -19 -151 18 -94 -17 -125 -143 -125 -133 0 -143 13 -159 220
-22 287 -29 320 -75 320 -39 0 -39 -8 -26 -230z"/>
<path d="M1006 1121 c-109 -101 -67 -251 76 -274 45 -7 84 -23 88 -35 3 -12
17 -62 29 -112 34 -128 73 -177 110 -139 25 25 24 43 -9 139 -22 61 -39 131
-39 156 -4 229 -141 371 -255 265z m131 -122 c18 -50 16 -63 -9 -73 -45 -17
-95 41 -79 92 20 61 64 52 88 -19z"/>
<path d="M3273 444 c-31 -35 -31 -40 3 -71 51 -45 127 4 93 60 -31 50 -57 53
-96 11z"/>
<path d="M3453 444 c-25 -28 -27 -42 -9 -60 53 -53 143 9 96 66 -32 39 -47 38
-87 -6z"/>
<path d="M3363 314 c-18 -22 -17 -34 6 -54 40 -32 96 -10 87 35 -8 44 -63 55
-93 19z"/>
</g>
</svg>
